<svg width="835" height="593" viewBox="0 0 835 593" fill="none" xmlns="http://www.w3.org/2000/svg">
<g clip-path="url(#clip0_54_114)">
<rect width="834.151" height="591.796" transform="translate(0.837402 0.366577)" fill="#101012"/>
<rect x="316.087" y="222.234" width="239.924" height="118.83" stroke="#AEAEAE" stroke-width="1.13172"/>
<rect x="569.969" y="265.994" width="158.818" height="75.0706" stroke="#AEAEAE" stroke-width="1.13172"/>
<rect x="483.959" y="351.25" width="191.26" height="75.0706" stroke="#AEAEAE" stroke-width="1.13172"/>
<rect x="429.26" y="436.506" width="204.086" height="105.25" stroke="#AEAEAE" stroke-width="1.13172"/>
<path d="M0.837402 233.656C17.0396 221.049 33.0639 208.052 50.5539 197.233C53.4678 195.431 57.1017 192.749 60.5512 191.937C62.5015 191.478 65.4681 191.678 67.4143 192.045C78.4024 194.119 88.3059 200.347 99.5138 202.313C110.01 204.154 120.562 203.355 130.965 205.231C139.16 206.709 146.211 209.338 154.634 209.338C165.089 209.338 174.927 203.502 185.599 203.502C191.283 203.502 194.311 206.1 200.19 204.042C209.698 200.714 218.113 193.904 227.534 189.938C237.547 185.722 247.365 180.361 257.634 176.806C261.733 175.387 265.349 172.758 269.793 172.429C276.345 171.944 283.276 172.251 289.733 173.348C298.762 174.881 304.223 178.415 311.349 183.075C321.187 189.507 339.948 182.834 350.366 181.346C357.346 180.348 365.013 184.25 371.549 185.993C378.802 187.927 386.025 189.896 393.273 191.829C398.997 193.355 403.214 196.693 409.377 196.693C434.581 196.693 458.951 201.079 484.222 200.53C492.978 200.339 502.53 199.928 511.188 198.422C513.683 197.988 516.345 196.693 518.861 196.693C530.022 196.693 540.885 188.546 551.826 187.02C559.926 185.889 567.352 184.257 574.901 181.021C580.624 178.568 587.984 172.613 594.409 172.375C601.084 172.128 608.274 176.404 614.404 178.752C623.307 182.161 632.727 183.478 641.64 186.966C664.595 195.948 690.921 188.911 714.917 188.911C729.655 188.911 743.114 191.149 757.501 192.748C763.248 193.387 769.385 192.802 775.172 192.802C783.936 192.802 791.286 196.265 799.435 198.422C808.8 200.901 816.696 195.613 825.212 193.721C831.013 192.432 837.13 192.802 843.207 192.802" stroke="#AEAEAE" stroke-width="1.2792" stroke-linecap="round"/>
<path d="M306.198 109.4L285.023 124.654L285.317 146.409L304.156 153.701L320.989 142.782L327.703 127.724L306.198 109.4Z" stroke="#AEAEAE" stroke-width="1.00612"/>
<path d="M452.459 163.895L426.815 155.689L412.583 135.632L429.979 119.926L447.119 122.461L451.695 107.432L473.199 125.756L484.235 151.265L452.459 163.895Z" stroke="#AEAEAE" stroke-width="1.00612"/>
<path d="M581.517 127.561L563.365 124.536L549.777 142.832L563.912 165.029L582.021 164.784L594.848 164.61L609.989 149.564L612.531 132.927L599.029 120.406L581.517 127.561Z" stroke="#AEAEAE" stroke-width="1.00612"/>
<path d="M52.8396 53.6432H50.2465V46.0136H42.1929V53.6432H39.6248V36.8629H42.1929V43.5451H50.2465V36.8629H52.8396V53.6432ZM69.2458 53.6432C68.8469 53.6765 68.5228 53.7014 68.2734 53.718C68.0241 53.7513 67.8413 53.7679 67.7249 53.7679C66.7276 53.7679 66.1042 53.3025 65.8549 52.3716C64.5251 53.4521 63.187 53.9923 61.8406 53.9923C60.5939 53.9923 59.5882 53.6848 58.8236 53.0698C57.9426 52.3716 57.5021 51.4075 57.5021 50.1775C57.5021 48.6648 58.1587 47.5511 59.4719 46.8364C60.4692 46.2878 61.7824 45.9803 63.4114 45.9138C63.7771 45.9138 64.3007 45.839 64.9822 45.6894C65.3147 45.4899 65.4809 45.2406 65.4809 44.9414C65.4809 43.5784 64.7162 42.8969 63.187 42.8969C61.3918 42.8969 60.4859 43.6947 60.4692 45.2905H58.0507C58.0839 43.6282 58.6491 42.4065 59.7462 41.6252C60.6105 40.977 61.7575 40.6528 63.187 40.6528C64.5334 40.6528 65.6222 40.952 66.4533 41.5504C67.4174 42.2486 67.8994 43.3124 67.8994 44.7419V51.0252C67.8994 51.341 67.9992 51.5488 68.1986 51.6485C68.315 51.6984 68.6641 51.7233 69.2458 51.7233V53.6432ZM65.4809 48.6565V47.6841C65.1152 47.734 64.6414 47.8005 64.0597 47.8836C63.4945 47.9667 62.813 48.0747 62.0151 48.2077C60.6355 48.4903 59.9456 49.1136 59.9456 50.0777C59.9456 50.5598 60.1368 50.9504 60.5191 51.2496C60.9014 51.5488 61.4001 51.6984 62.0151 51.6984C63.0125 51.6984 63.8353 51.4241 64.4835 50.8756C65.1484 50.3271 65.4809 49.5874 65.4809 48.6565ZM83.9818 49.8533C83.9818 51.1332 83.4166 52.114 82.2863 52.7955C81.4219 53.3606 80.3664 53.6432 79.1197 53.6432H73.0359V40.952H79.1197C80.0838 40.952 80.9814 41.218 81.8126 41.7499C82.7767 42.3649 83.2587 43.2127 83.2587 44.2931C83.2587 45.3902 82.7351 46.1964 81.6879 46.7117C82.3362 46.9943 82.8598 47.3849 83.2587 47.8836C83.7408 48.5152 83.9818 49.1718 83.9818 49.8533ZM80.7404 44.4677C80.7404 43.703 80.2002 43.3207 79.1197 43.3207H75.5542V45.7642H79.1197C79.5685 45.7642 79.9509 45.6395 80.2667 45.3902C80.5825 45.1409 80.7404 44.8334 80.7404 44.4677ZM81.4386 49.6788C81.4386 49.1801 81.2058 48.7812 80.7404 48.482C80.275 48.1662 79.7348 48.0082 79.1197 48.0082H75.5542V51.2745H79.1197C79.7846 51.2745 80.3332 51.1332 80.7654 50.8507C81.2142 50.5681 81.4386 50.1775 81.4386 49.6788ZM99.0006 53.6432H96.5571V45.839L90.7974 52.222V53.6432H88.3539V40.952H90.7974V48.7064L96.5571 42.3483V40.952H99.0006V53.6432ZM113.991 43.2958H107.308V53.6432H104.74V40.952H113.991V43.2958ZM129.973 53.6432C129.574 53.6765 129.25 53.7014 129 53.718C128.751 53.7513 128.568 53.7679 128.452 53.7679C127.454 53.7679 126.831 53.3025 126.582 52.3716C125.252 53.4521 123.914 53.9923 122.567 53.9923C121.321 53.9923 120.315 53.6848 119.55 53.0698C118.67 52.3716 118.229 51.4075 118.229 50.1775C118.229 48.6648 118.886 47.5511 120.199 46.8364C121.196 46.2878 122.509 45.9803 124.138 45.9138C124.504 45.9138 125.028 45.839 125.709 45.6894C126.042 45.4899 126.208 45.2406 126.208 44.9414C126.208 43.5784 125.443 42.8969 123.914 42.8969C122.119 42.8969 121.213 43.6947 121.196 45.2905H118.778C118.811 43.6282 119.376 42.4065 120.473 41.6252C121.337 40.977 122.484 40.6528 123.914 40.6528C125.26 40.6528 126.349 40.952 127.18 41.5504C128.144 42.2486 128.626 43.3124 128.626 44.7419V51.0252C128.626 51.341 128.726 51.5488 128.926 51.6485C129.042 51.6984 129.391 51.7233 129.973 51.7233V53.6432ZM126.208 48.6565V47.6841C125.842 47.734 125.368 47.8005 124.787 47.8836C124.221 47.9667 123.54 48.0747 122.742 48.2077C121.362 48.4903 120.672 49.1136 120.672 50.0777C120.672 50.5598 120.864 50.9504 121.246 51.2496C121.628 51.5488 122.127 51.6984 122.742 51.6984C123.739 51.6984 124.562 51.4241 125.21 50.8756C125.875 50.3271 126.208 49.5874 126.208 48.6565ZM146.429 57.0841H144.858C144.193 54.9231 143.221 53.8427 141.941 53.8427H133.912V40.952H136.381V51.474H141.492V40.952H144.011V51.7732C144.011 52.5046 144.692 52.8703 146.055 52.8703L146.429 57.0841ZM159.947 53.6432H157.503V45.839L151.743 52.222V53.6432H149.3V40.952H151.743V48.7064L157.503 42.3483V40.952H159.947V53.6432ZM174.762 53.6432H172.319V48.9058H170.648L166.858 53.6432H163.742L167.806 48.5817C166.11 48.0165 165.262 46.7366 165.262 44.7419C165.262 42.2153 167.124 40.952 170.848 40.952H174.762V53.6432ZM172.319 46.5621V43.2958H170.149C168.504 43.2958 167.681 43.8028 167.681 44.8167C167.681 45.9803 168.504 46.5621 170.149 46.5621H172.319ZM197.535 53.6432H195.141V43.2958H189.681V53.6432H187.262V40.952H197.535V53.6432ZM213.928 47.3101C213.928 49.0887 213.421 50.6096 212.407 51.8729C211.277 53.2692 209.847 53.9674 208.119 53.9674C206.34 53.9674 204.902 53.2775 203.805 51.8979C202.791 50.6346 202.284 49.1053 202.284 47.3101C202.284 45.5315 202.783 44.0022 203.78 42.7223C204.877 41.326 206.323 40.6279 208.119 40.6279C209.897 40.6279 211.335 41.3344 212.432 42.7473C213.429 44.0272 213.928 45.5481 213.928 47.3101ZM211.46 47.2852C211.46 46.1216 211.169 45.1243 210.587 44.2931C209.955 43.3955 209.133 42.9467 208.119 42.9467C207.088 42.9467 206.265 43.3955 205.65 44.2931C205.068 45.1243 204.778 46.1216 204.778 47.2852C204.778 48.4654 205.077 49.4627 205.675 50.2772C206.29 51.1748 207.105 51.6236 208.119 51.6236C209.116 51.6236 209.93 51.1748 210.562 50.2772C211.161 49.4627 211.46 48.4654 211.46 47.2852ZM235.203 49.8284C235.203 51.1748 234.58 52.2303 233.333 52.995C232.319 53.61 231.181 53.9175 229.917 53.9175C228.588 53.9175 227.432 53.6017 226.452 52.97C225.255 52.2054 224.656 51.1332 224.656 49.7536V49.4295H227.125C227.125 50.992 228.039 51.7732 229.868 51.7732C230.616 51.7732 231.272 51.5904 231.837 51.2247C232.452 50.8257 232.76 50.3437 232.76 49.7785C232.76 48.9806 232.245 48.457 231.214 48.2077C230.798 48.0914 229.984 48.0332 228.77 48.0332V45.9886H229.319C230.2 45.9886 230.915 45.864 231.463 45.6146C232.078 45.3487 232.386 44.9497 232.386 44.4178C232.386 43.9358 232.145 43.5451 231.663 43.2459C231.247 42.98 230.69 42.847 229.992 42.847C228.363 42.847 227.515 43.6449 227.449 45.2406H225.13C225.18 43.6615 225.712 42.473 226.726 41.6751C227.54 41.0102 228.637 40.6778 230.017 40.6778C231.214 40.6778 232.253 40.9437 233.134 41.4756C234.198 42.1405 234.73 43.1213 234.73 44.4178C234.73 45.4151 234.256 46.2213 233.308 46.8364C234.572 47.4015 235.203 48.3989 235.203 49.8284ZM252.743 56.8597H250.948C250.233 54.7985 249.319 53.7679 248.206 53.7679H241.349C240.701 53.7679 240.252 54.0671 240.002 54.6655C239.82 55.0644 239.695 55.7958 239.628 56.8597H237.534L237.709 53.0199C239.138 51.74 240.177 50.0611 240.825 47.9833C241.424 46.1216 241.723 43.7778 241.723 40.952H250.275V51.6735C250.275 51.9394 250.458 52.1721 250.824 52.3716C251.189 52.5877 251.713 52.6957 252.394 52.6957L252.743 56.8597ZM247.757 51.474V43.4205H244.191C244.158 44.0687 244.083 44.7336 243.967 45.4151C243.867 46.0967 243.726 46.8114 243.543 47.5594C243.327 48.3573 243.086 49.0804 242.82 49.7287C242.554 50.3769 242.263 50.9587 241.947 51.474H247.757ZM266.864 53.6432C266.465 53.6765 266.141 53.7014 265.891 53.718C265.642 53.7513 265.459 53.7679 265.343 53.7679C264.346 53.7679 263.722 53.3025 263.473 52.3716C262.143 53.4521 260.805 53.9923 259.459 53.9923C258.212 53.9923 257.206 53.6848 256.442 53.0698C255.561 52.3716 255.12 51.4075 255.12 50.1775C255.12 48.6648 255.777 47.5511 257.09 46.8364C258.087 46.2878 259.4 45.9803 261.029 45.9138C261.395 45.9138 261.919 45.839 262.6 45.6894C262.933 45.4899 263.099 45.2406 263.099 44.9414C263.099 43.5784 262.334 42.8969 260.805 42.8969C259.01 42.8969 258.104 43.6947 258.087 45.2905H255.669C255.702 43.6282 256.267 42.4065 257.364 41.6252C258.229 40.977 259.375 40.6528 260.805 40.6528C262.151 40.6528 263.24 40.952 264.071 41.5504C265.035 42.2486 265.517 43.3124 265.517 44.7419V51.0252C265.517 51.341 265.617 51.5488 265.817 51.6485C265.933 51.6984 266.282 51.7233 266.864 51.7233V53.6432ZM263.099 48.6565V47.6841C262.733 47.734 262.259 47.8005 261.678 47.8836C261.113 47.9667 260.431 48.0747 259.633 48.2077C258.253 48.4903 257.564 49.1136 257.564 50.0777C257.564 50.5598 257.755 50.9504 258.137 51.2496C258.519 51.5488 259.018 51.6984 259.633 51.6984C260.63 51.6984 261.453 51.4241 262.102 50.8756C262.766 50.3271 263.099 49.5874 263.099 48.6565ZM280.976 53.6432H278.583V48.2326H273.122V53.6432H270.729V40.952H273.122V45.9138H278.583V40.952H280.976V53.6432ZM297.373 53.6432H294.93V45.839L289.17 52.222V53.6432H286.727V40.952H289.17V48.7064L294.93 42.3483V40.952H297.373V53.6432ZM317.749 47.3101C317.749 49.1718 317.3 50.6761 316.403 51.8231C315.921 52.4215 315.306 52.9285 314.558 53.344C313.793 53.7596 313.012 53.9674 312.214 53.9674C310.668 53.9674 309.388 53.369 308.374 52.1721C307.493 51.1416 306.953 49.8533 306.753 48.3074H305.706V53.6682H303.188V40.9271H305.706V45.9637H306.828C307.044 44.5508 307.468 43.4454 308.1 42.6475C308.582 42.0657 309.197 41.592 309.945 41.2263C310.71 40.8274 311.466 40.6279 312.214 40.6279C313.909 40.6279 315.281 41.326 316.328 42.7223C317.275 44.0022 317.749 45.5315 317.749 47.3101ZM315.231 47.2852C315.231 46.1548 314.982 45.1741 314.483 44.343C313.901 43.4122 313.145 42.9467 312.214 42.9467C311.3 42.9467 310.552 43.4122 309.97 44.343C309.455 45.1575 309.197 46.1382 309.197 47.2852C309.197 48.4155 309.463 49.3962 309.995 50.2273C310.577 51.1582 311.316 51.6236 312.214 51.6236C313.128 51.6236 313.876 51.1582 314.458 50.2273C314.973 49.4128 315.231 48.4321 315.231 47.2852Z" fill="white"/>
<path d="M635.66 117.613C634.888 118.604 635.065 120.033 636.055 120.805C637.046 121.578 638.475 121.401 639.247 120.41C640.02 119.42 639.843 117.991 638.852 117.219C637.862 116.446 636.433 116.623 635.66 117.613ZM686.956 84.0751C686.183 85.0655 686.36 86.4945 687.351 87.2669C688.341 88.0392 689.77 87.8624 690.543 86.8719C691.315 85.8815 691.138 84.4525 690.148 83.6801C689.157 82.9078 687.728 83.0847 686.956 84.0751ZM637.454 119.012L637.687 119.369L688.983 85.8304L688.749 85.4735L688.516 85.1166L637.221 118.655L637.454 119.012Z" fill="white"/>
<path d="M638.723 56.1538V46.1931H639.951V50.4503H643.144V46.1931H644.372V56.1538H643.144V51.5691H639.951V56.1538H638.723ZM649.074 56.2903C648.282 56.2903 647.659 56.0901 647.204 55.6899C646.75 55.2805 646.522 54.7302 646.522 54.0389C646.522 53.3384 646.75 52.7881 647.204 52.3878C647.659 51.9876 648.273 51.7875 649.046 51.7875H651.366V51.037C651.366 50.5731 651.225 50.2183 650.943 49.9727C650.67 49.718 650.279 49.5907 649.77 49.5907C649.324 49.5907 648.951 49.6862 648.651 49.8772C648.35 50.0591 648.178 50.3093 648.132 50.6277H646.904C646.986 49.9818 647.291 49.4678 647.818 49.0858C648.346 48.7037 649.005 48.5127 649.797 48.5127C650.661 48.5127 651.343 48.7356 651.844 49.1813C652.344 49.627 652.594 50.232 652.594 50.9961V56.1538H651.393V54.7211H651.189L651.393 54.5164C651.393 55.0622 651.18 55.4943 650.752 55.8127C650.334 56.1311 649.774 56.2903 649.074 56.2903ZM649.374 55.3215C649.956 55.3215 650.434 55.1759 650.807 54.8848C651.18 54.5938 651.366 54.2208 651.366 53.766V52.7017H649.074C648.664 52.7017 648.341 52.8154 648.105 53.0428C647.868 53.2702 647.75 53.5795 647.75 53.9706C647.75 54.3891 647.891 54.7211 648.173 54.9667C648.464 55.2032 648.864 55.3215 649.374 55.3215ZM657.91 56.2903C657.028 56.2903 656.327 56.031 655.809 55.5125C655.299 54.9849 655.045 54.2663 655.045 53.3566V49.9454C655.045 48.7447 655.345 47.8214 655.945 47.1755C656.546 46.5206 657.405 46.1931 658.524 46.1931H660.434V47.4211H658.524C657.787 47.4211 657.228 47.6394 656.846 48.0761C656.464 48.5036 656.273 49.1267 656.273 49.9454V50.8323H656.464L656.273 51.1052C656.282 50.5685 656.464 50.1501 656.819 49.8499C657.173 49.5497 657.655 49.3996 658.265 49.3996C659.056 49.3996 659.67 49.6543 660.107 50.1637C660.553 50.6731 660.776 51.3736 660.776 52.265V53.3566C660.776 53.9661 660.662 54.4891 660.434 54.9258C660.207 55.3624 659.88 55.699 659.452 55.9355C659.025 56.172 658.511 56.2903 657.91 56.2903ZM657.91 55.1987C658.438 55.1987 658.843 55.0395 659.125 54.7211C659.407 54.4027 659.548 53.9479 659.548 53.3566V52.265C659.548 51.6738 659.407 51.2189 659.125 50.9006C658.843 50.5822 658.438 50.423 657.91 50.423C657.383 50.423 656.978 50.5822 656.696 50.9006C656.414 51.2098 656.273 51.6647 656.273 52.265V53.3566C656.273 53.9479 656.414 54.4027 656.696 54.7211C656.978 55.0395 657.383 55.1987 657.91 55.1987ZM662.339 56.2493V55.1032H662.585C663.003 55.1032 663.295 54.9394 663.458 54.6119C663.631 54.2845 663.722 53.6977 663.731 52.8518L663.813 48.6492H668.903V56.1538H667.675V49.768H665.027L664.959 52.9063C664.941 53.6977 664.85 54.339 664.686 54.8303C664.532 55.3215 664.286 55.6808 663.95 55.9082C663.622 56.1356 663.19 56.2493 662.653 56.2493H662.339ZM675.447 56.2903C674.819 56.2903 674.314 56.0765 673.932 55.649C673.55 55.2214 673.359 54.662 673.359 53.9706V52.8381H672.158V56.1538H671.026V48.6492H672.158V51.8557H673.359V50.8323C673.359 50.1319 673.546 49.5725 673.919 49.154C674.301 48.7265 674.81 48.5127 675.447 48.5127C676.12 48.5127 676.661 48.7265 677.07 49.154C677.48 49.5725 677.685 50.1319 677.685 50.8323V53.9706C677.685 54.662 677.48 55.2214 677.07 55.649C676.661 56.0765 676.12 56.2903 675.447 56.2903ZM675.447 55.3351C675.792 55.3351 676.061 55.2169 676.252 54.9804C676.452 54.7347 676.552 54.3982 676.552 53.9706V50.8323C676.552 50.4048 676.452 50.0728 676.252 49.8363C676.061 49.5907 675.792 49.4678 675.447 49.4678C675.11 49.4678 674.846 49.5907 674.655 49.8363C674.464 50.0728 674.369 50.4048 674.369 50.8323V53.9706C674.369 54.3982 674.464 54.7347 674.655 54.9804C674.846 55.2169 675.11 55.3351 675.447 55.3351ZM678.771 58.0641V55.1032H679.385C679.539 54.9485 679.699 54.6438 679.862 54.189C680.035 53.7341 680.126 53.1565 680.135 52.4561L680.217 48.6492H685.116V55.1032H686.071V58.0641H684.979V56.1538H679.862V58.0641H678.771ZM680.681 55.1032H683.888V49.7407H681.377L681.322 52.4834C681.313 53.202 681.236 53.7842 681.09 54.2299C680.945 54.6756 680.808 54.9667 680.681 55.1032ZM689.981 56.2903C689.19 56.2903 688.567 56.0901 688.112 55.6899C687.657 55.2805 687.43 54.7302 687.43 54.0389C687.43 53.3384 687.657 52.7881 688.112 52.3878C688.567 51.9876 689.181 51.7875 689.954 51.7875H692.274V51.037C692.274 50.5731 692.133 50.2183 691.851 49.9727C691.578 49.718 691.187 49.5907 690.677 49.5907C690.232 49.5907 689.859 49.6862 689.558 49.8772C689.258 50.0591 689.085 50.3093 689.04 50.6277H687.812C687.894 49.9818 688.199 49.4678 688.726 49.0858C689.254 48.7037 689.913 48.5127 690.705 48.5127C691.569 48.5127 692.251 48.7356 692.751 49.1813C693.252 49.627 693.502 50.232 693.502 50.9961V56.1538H692.301V54.7211H692.096L692.301 54.5164C692.301 55.0622 692.087 55.4943 691.66 55.8127C691.241 56.1311 690.682 56.2903 689.981 56.2903ZM690.282 55.3215C690.864 55.3215 691.341 55.1759 691.714 54.8848C692.087 54.5938 692.274 54.2208 692.274 53.766V52.7017H689.981C689.572 52.7017 689.249 52.8154 689.013 53.0428C688.776 53.2702 688.658 53.5795 688.658 53.9706C688.658 54.3891 688.799 54.7211 689.081 54.9667C689.372 55.2032 689.772 55.3215 690.282 55.3215ZM698.204 56.1538V49.7271H695.475V48.6492H702.161V49.7271H699.432V56.1538H698.204ZM707 56.2903C706.408 56.2903 705.89 56.172 705.444 55.9355C705.007 55.699 704.666 55.367 704.421 54.9394C704.184 54.5028 704.066 53.9979 704.066 53.4248V51.3781C704.066 50.7959 704.184 50.2911 704.421 49.8635C704.666 49.436 705.007 49.104 705.444 48.8675C705.89 48.631 706.408 48.5127 707 48.5127C707.591 48.5127 708.105 48.631 708.541 48.8675C708.987 49.104 709.328 49.436 709.565 49.8635C709.81 50.2911 709.933 50.7959 709.933 51.3781V52.7017H705.267V53.4248C705.267 54.0161 705.417 54.4709 705.717 54.7893C706.017 55.0986 706.445 55.2533 707 55.2533C707.473 55.2533 707.855 55.1714 708.146 55.0076C708.437 54.8348 708.614 54.5801 708.678 54.2435H709.906C709.824 54.8712 709.515 55.3715 708.978 55.7445C708.45 56.1083 707.791 56.2903 707 56.2903ZM708.732 51.883V51.3781C708.732 50.7868 708.582 50.332 708.282 50.0136C707.991 49.6953 707.564 49.5361 707 49.5361C706.445 49.5361 706.017 49.6953 705.717 50.0136C705.417 50.332 705.267 50.7868 705.267 51.3781V51.7738H708.828L708.732 51.883ZM711.429 56.2493V55.1032H711.674C712.093 55.1032 712.384 54.9394 712.548 54.6119C712.72 54.2845 712.811 53.6977 712.821 52.8518L712.902 48.6492H717.992V56.1538H716.764V49.768H714.117L714.049 52.9063C714.03 53.6977 713.939 54.339 713.776 54.8303C713.621 55.3215 713.375 55.6808 713.039 55.9082C712.711 56.1356 712.279 56.2493 711.743 56.2493H711.429ZM720.606 56.1538V48.6492H721.834V51.4054H724.045C724.891 51.4054 725.555 51.6192 726.037 52.0467C726.528 52.4652 726.774 53.0428 726.774 53.7796C726.774 54.5073 726.528 55.085 726.037 55.5125C725.546 55.94 724.882 56.1538 724.045 56.1538H720.606ZM721.834 55.0349H724.045C724.518 55.0349 724.877 54.9303 725.123 54.7211C725.378 54.5028 725.505 54.189 725.505 53.7796C725.505 53.3703 725.378 53.061 725.123 52.8518C724.877 52.6334 724.518 52.5243 724.045 52.5243H721.834V55.0349ZM728.733 56.1538V48.6492H729.961V51.7738H733.127V48.6492H734.355V56.1538H733.127V52.8927H729.961V56.1538H728.733ZM736.519 56.1538V48.6492H737.665V51.4054H738.279C739.089 51.4054 739.726 51.6192 740.19 52.0467C740.663 52.4652 740.899 53.0428 740.899 53.7796C740.899 54.5164 740.663 55.0986 740.19 55.5261C739.726 55.9446 739.089 56.1538 738.279 56.1538H736.519ZM737.665 55.1714H738.279C738.762 55.1714 739.135 55.0486 739.398 54.803C739.671 54.5574 739.808 54.2162 739.808 53.7796C739.808 53.343 739.671 53.0019 739.398 52.7562C739.135 52.5106 738.762 52.3878 738.279 52.3878H737.665V55.1714ZM741.786 56.1538V48.6492H742.932V56.1538H741.786ZM747.907 56.2903C747.316 56.2903 746.798 56.172 746.352 55.9355C745.915 55.699 745.574 55.367 745.328 54.9394C745.092 54.5028 744.974 53.9979 744.974 53.4248V51.3781C744.974 50.7959 745.092 50.2911 745.328 49.8635C745.574 49.436 745.915 49.104 746.352 48.8675C746.798 48.631 747.316 48.5127 747.907 48.5127C748.499 48.5127 749.013 48.631 749.449 48.8675C749.895 49.104 750.236 49.436 750.473 49.8635C750.718 50.2911 750.841 50.7959 750.841 51.3781V52.7017H746.174V53.4248C746.174 54.0161 746.325 54.4709 746.625 54.7893C746.925 55.0986 747.352 55.2533 747.907 55.2533C748.38 55.2533 748.762 55.1714 749.054 55.0076C749.345 54.8348 749.522 54.5801 749.586 54.2435H750.814C750.732 54.8712 750.423 55.3715 749.886 55.7445C749.358 56.1083 748.699 56.2903 747.907 56.2903ZM749.64 51.883V51.3781C749.64 50.7868 749.49 50.332 749.19 50.0136C748.899 49.6953 748.471 49.5361 747.907 49.5361C747.352 49.5361 746.925 49.6953 746.625 50.0136C746.325 50.332 746.174 50.7868 746.174 51.3781V51.7738H749.736L749.64 51.883ZM761.46 56.1538V48.6492H767.081V56.1538H765.853V49.768H762.688V56.1538H761.46ZM770.787 58.6099L771.893 55.6899L769.109 48.6492H770.474L772.22 53.2884C772.284 53.443 772.343 53.6295 772.397 53.8478C772.452 54.0571 772.498 54.2344 772.534 54.38C772.57 54.2344 772.616 54.0571 772.67 53.8478C772.725 53.6295 772.78 53.443 772.834 53.2884L774.471 48.6492H775.795L772.097 58.6099H770.787ZM777.823 56.1538V48.6492H779.051V51.7738H782.216V48.6492H783.444V56.1538H782.216V52.8927H779.051V56.1538H777.823ZM786.045 56.1538V48.6492H787.273V51.7465H788.556L790.739 48.6492H792.145L789.62 52.2241L792.185 56.1538H790.753L788.57 52.8108H787.273V56.1538H786.045ZM796.383 56.1538V49.7271H793.654V48.6492H800.34V49.7271H797.611V56.1538H796.383ZM801.972 56.1538V48.6492H803.118V51.4054H803.732C804.542 51.4054 805.178 51.6192 805.642 52.0467C806.115 52.4652 806.352 53.0428 806.352 53.7796C806.352 54.5164 806.115 55.0986 805.642 55.5261C805.178 55.9446 804.542 56.1538 803.732 56.1538H801.972ZM803.118 55.1714H803.732C804.214 55.1714 804.587 55.0486 804.851 54.803C805.124 54.5574 805.26 54.2162 805.26 53.7796C805.26 53.343 805.124 53.0019 804.851 52.7562C804.587 52.5106 804.214 52.3878 803.732 52.3878H803.118V55.1714ZM807.239 56.1538V48.6492H808.385V56.1538H807.239Z" fill="white"/>
<path d="M297.416 296.188C298.602 295.776 299.23 294.48 298.817 293.293C298.405 292.107 297.109 291.479 295.923 291.892C294.736 292.304 294.109 293.6 294.521 294.786C294.933 295.973 296.229 296.6 297.416 296.188ZM219.475 296.58C220.662 296.168 221.289 294.872 220.877 293.686C220.465 292.499 219.169 291.872 217.982 292.284C216.796 292.696 216.169 293.992 216.581 295.179C216.993 296.365 218.289 296.993 219.475 296.58ZM296.669 294.04L296.667 293.613L218.727 294.006L218.729 294.432L218.731 294.859L296.671 294.466L296.669 294.04Z" fill="white"/>
<path d="M467.644 398.986C468.84 398.599 469.495 397.317 469.109 396.122C468.722 394.927 467.44 394.272 466.245 394.658C465.05 395.044 464.394 396.327 464.781 397.522C465.167 398.717 466.449 399.372 467.644 398.986ZM152.468 398.29C153.663 397.903 154.318 396.621 153.932 395.426C153.545 394.231 152.263 393.575 151.068 393.962C149.873 394.348 149.218 395.63 149.604 396.825C149.99 398.02 151.273 398.676 152.468 398.29ZM466.945 396.822L466.946 396.395L151.769 395.699L151.768 396.126L151.767 396.552L466.944 397.248L466.945 396.822Z" fill="white"/>
<path d="M410.795 497.939C411.99 497.553 412.646 496.271 412.259 495.076C411.873 493.881 410.591 493.225 409.396 493.612C408.201 493.998 407.545 495.28 407.932 496.475C408.318 497.67 409.6 498.326 410.795 497.939ZM266.372 497.62C267.567 497.234 268.222 495.952 267.836 494.757C267.449 493.562 266.167 492.906 264.972 493.293C263.777 493.679 263.122 494.961 263.508 496.156C263.895 497.351 265.177 498.007 266.372 497.62ZM410.096 495.775L410.097 495.349L265.673 495.03L265.672 495.456L265.671 495.883L410.095 496.202L410.096 495.775Z" fill="white"/>
<path d="M38.5825 299.202V289.241H44.3815V290.36H39.8105V299.202H38.5825ZM45.6042 299.298V298.151H45.8498C46.2683 298.151 46.5594 297.988 46.7231 297.66C46.8959 297.333 46.9869 296.746 46.996 295.9L47.0779 291.697H52.1674V299.202H50.9393V292.816H48.2923L48.224 295.955C48.2058 296.746 48.1149 297.387 47.9511 297.879C47.7965 298.37 47.5509 298.729 47.2143 298.957C46.8868 299.184 46.4548 299.298 45.9181 299.298H45.6042ZM56.8832 299.339C56.0918 299.339 55.4686 299.138 55.0138 298.738C54.559 298.329 54.3316 297.779 54.3316 297.087C54.3316 296.387 54.559 295.836 55.0138 295.436C55.4686 295.036 56.0827 294.836 56.8559 294.836H59.1755V294.085C59.1755 293.621 59.0345 293.267 58.7525 293.021C58.4796 292.766 58.0885 292.639 57.579 292.639C57.1333 292.639 56.7604 292.735 56.4602 292.926C56.16 293.107 55.9872 293.358 55.9417 293.676H54.7136C54.7955 293.03 55.1002 292.516 55.6278 292.134C56.1554 291.752 56.8149 291.561 57.6063 291.561C58.4705 291.561 59.1527 291.784 59.6531 292.23C60.1534 292.675 60.4035 293.28 60.4035 294.044V299.202H59.2028V297.769H58.9981L59.2028 297.565C59.2028 298.111 58.989 298.543 58.5615 298.861C58.143 299.179 57.5836 299.339 56.8832 299.339ZM57.1833 298.37C57.7655 298.37 58.2431 298.224 58.6161 297.933C58.989 297.642 59.1755 297.269 59.1755 296.814V295.75H56.8832C56.4738 295.75 56.1509 295.864 55.9144 296.091C55.6779 296.319 55.5596 296.628 55.5596 297.019C55.5596 297.437 55.7006 297.769 55.9826 298.015C56.2737 298.252 56.6739 298.37 57.1833 298.37ZM62.9088 299.202V291.697H66.1563C66.9386 291.697 67.5435 291.875 67.9711 292.23C68.3986 292.575 68.6124 293.062 68.6124 293.69C68.6124 294.208 68.435 294.627 68.0802 294.945C67.7255 295.254 67.257 295.409 66.6748 295.409V295.3C67.3116 295.3 67.821 295.459 68.203 295.777C68.5942 296.096 68.7898 296.523 68.7898 297.06C68.7898 297.733 68.5623 298.261 68.1075 298.643C67.6527 299.016 67.0159 299.202 66.1972 299.202H62.9088ZM64.1096 298.124H66.1972C66.6339 298.124 66.9704 298.029 67.207 297.838C67.4526 297.647 67.5754 297.378 67.5754 297.033C67.5754 296.678 67.4526 296.405 67.207 296.214C66.9704 296.023 66.6339 295.927 66.1972 295.927H64.1096V298.124ZM64.1096 294.863H66.1563C66.5384 294.863 66.8385 294.772 67.0569 294.59C67.2843 294.408 67.398 294.154 67.398 293.826C67.398 293.499 67.2888 293.244 67.0705 293.062C66.8522 292.871 66.5475 292.775 66.1563 292.775H64.1096V294.863ZM71.0904 299.202V291.697H72.3184V294.822H75.484V291.697H76.7121V299.202H75.484V295.941H72.3184V299.202H71.0904ZM81.4278 299.339C80.6364 299.339 80.0133 299.138 79.5585 298.738C79.1037 298.329 78.8763 297.779 78.8763 297.087C78.8763 296.387 79.1037 295.836 79.5585 295.436C80.0133 295.036 80.6273 294.836 81.4006 294.836H83.7202V294.085C83.7202 293.621 83.5792 293.267 83.2972 293.021C83.0243 292.766 82.6331 292.639 82.1237 292.639C81.678 292.639 81.305 292.735 81.0049 292.926C80.7047 293.107 80.5318 293.358 80.4864 293.676H79.2583C79.3402 293.03 79.6449 292.516 80.1725 292.134C80.7001 291.752 81.3596 291.561 82.151 291.561C83.0152 291.561 83.6974 291.784 84.1977 292.23C84.6981 292.675 84.9482 293.28 84.9482 294.044V299.202H83.7475V297.769H83.5428L83.7475 297.565C83.7475 298.111 83.5337 298.543 83.1062 298.861C82.6877 299.179 82.1283 299.339 81.4278 299.339ZM81.728 298.37C82.3102 298.37 82.7878 298.224 83.1607 297.933C83.5337 297.642 83.7202 297.269 83.7202 296.814V295.75H81.4278C81.0185 295.75 80.6956 295.864 80.4591 296.091C80.2226 296.319 80.1043 296.628 80.1043 297.019C80.1043 297.437 80.2453 297.769 80.5273 298.015C80.8184 298.252 81.2186 298.37 81.728 298.37ZM86.9896 299.202L88.9135 296.309C88.3404 296.173 87.8947 295.909 87.5763 295.518C87.267 295.127 87.1124 294.64 87.1124 294.058C87.1124 293.321 87.3535 292.744 87.8356 292.325C88.3268 291.907 88.9954 291.697 89.8414 291.697H93.0752V299.202H91.8472V296.405H90.1961L88.4223 299.202H86.9896ZM89.8414 295.313H91.8472V292.789H89.8414C89.3865 292.789 89.0272 292.903 88.7634 293.13C88.4996 293.349 88.3677 293.658 88.3677 294.058C88.3677 294.449 88.4996 294.758 88.7634 294.986C89.0272 295.204 89.3865 295.313 89.8414 295.313ZM102.875 299.298V298.151H103.121C103.539 298.151 103.83 297.988 103.994 297.66C104.167 297.333 104.258 296.746 104.267 295.9L104.349 291.697H109.438V299.202H108.21V292.816H105.563L105.495 295.955C105.477 296.746 105.386 297.387 105.222 297.879C105.067 298.37 104.822 298.729 104.485 298.957C104.158 299.184 103.726 299.298 103.189 299.298H102.875ZM114.154 299.339C113.363 299.339 112.74 299.138 112.285 298.738C111.83 298.329 111.603 297.779 111.603 297.087C111.603 296.387 111.83 295.836 112.285 295.436C112.74 295.036 113.354 294.836 114.127 294.836H116.446V294.085C116.446 293.621 116.305 293.267 116.023 293.021C115.751 292.766 115.359 292.639 114.85 292.639C114.404 292.639 114.031 292.735 113.731 292.926C113.431 293.107 113.258 293.358 113.213 293.676H111.985C112.066 293.03 112.371 292.516 112.899 292.134C113.426 291.752 114.086 291.561 114.877 291.561C115.741 291.561 116.424 291.784 116.924 292.23C117.424 292.675 117.674 293.28 117.674 294.044V299.202H116.474V297.769H116.269L116.474 297.565C116.474 298.111 116.26 298.543 115.832 298.861C115.414 299.179 114.855 299.339 114.154 299.339ZM114.454 298.37C115.036 298.37 115.514 298.224 115.887 297.933C116.26 297.642 116.446 297.269 116.446 296.814V295.75H114.154C113.745 295.75 113.422 295.864 113.185 296.091C112.949 296.319 112.831 296.628 112.831 297.019C112.831 297.437 112.972 297.769 113.254 298.015C113.545 298.252 113.945 298.37 114.454 298.37ZM122.991 299.339C122.108 299.339 121.408 299.079 120.889 298.561C120.38 298.033 120.125 297.315 120.125 296.405V292.994C120.125 291.793 120.425 290.87 121.026 290.224C121.626 289.569 122.486 289.241 123.605 289.241H125.515V290.469H123.605C122.868 290.469 122.308 290.688 121.926 291.124C121.544 291.552 121.353 292.175 121.353 292.994V293.881H121.544L121.353 294.154C121.362 293.617 121.544 293.198 121.899 292.898C122.254 292.598 122.736 292.448 123.345 292.448C124.137 292.448 124.751 292.703 125.187 293.212C125.633 293.721 125.856 294.422 125.856 295.313V296.405C125.856 297.014 125.742 297.537 125.515 297.974C125.287 298.411 124.96 298.747 124.532 298.984C124.105 299.22 123.591 299.339 122.991 299.339ZM122.991 298.247C123.518 298.247 123.923 298.088 124.205 297.769C124.487 297.451 124.628 296.996 124.628 296.405V295.313C124.628 294.722 124.487 294.267 124.205 293.949C123.923 293.631 123.518 293.471 122.991 293.471C122.463 293.471 122.058 293.631 121.776 293.949C121.494 294.258 121.353 294.713 121.353 295.313V296.405C121.353 296.996 121.494 297.451 121.776 297.769C122.058 298.088 122.463 298.247 122.991 298.247ZM131.172 299.311C130.572 299.311 130.053 299.198 129.617 298.97C129.18 298.743 128.839 298.415 128.593 297.988C128.357 297.551 128.239 297.037 128.239 296.446V294.454C128.239 293.853 128.357 293.339 128.593 292.912C128.839 292.484 129.18 292.157 129.617 291.929C130.053 291.702 130.572 291.588 131.172 291.588C131.773 291.588 132.291 291.702 132.728 291.929C133.164 292.157 133.501 292.484 133.737 292.912C133.983 293.339 134.106 293.849 134.106 294.44V296.446C134.106 297.037 133.983 297.551 133.737 297.988C133.501 298.415 133.164 298.743 132.728 298.97C132.291 299.198 131.773 299.311 131.172 299.311ZM131.172 298.22C131.709 298.22 132.127 298.07 132.427 297.769C132.728 297.469 132.878 297.028 132.878 296.446V294.454C132.878 293.872 132.728 293.43 132.427 293.13C132.127 292.83 131.709 292.68 131.172 292.68C130.645 292.68 130.226 292.83 129.917 293.13C129.617 293.43 129.467 293.872 129.467 294.454V296.446C129.467 297.028 129.617 297.469 129.917 297.769C130.226 298.07 130.645 298.22 131.172 298.22ZM136.516 301.658V291.697H137.744V293.13H137.989L137.744 293.417C137.744 292.844 137.93 292.393 138.303 292.066C138.685 291.729 139.185 291.561 139.804 291.561C140.559 291.561 141.159 291.811 141.605 292.312C142.06 292.803 142.287 293.48 142.287 294.345V296.541C142.287 297.114 142.183 297.61 141.974 298.029C141.773 298.447 141.487 298.77 141.114 298.997C140.75 299.225 140.313 299.339 139.804 299.339C139.195 299.339 138.699 299.17 138.317 298.834C137.935 298.497 137.744 298.047 137.744 297.483L137.989 297.769H137.716L137.744 299.475V301.658H136.516ZM139.395 298.274C139.913 298.274 140.318 298.12 140.609 297.81C140.909 297.501 141.059 297.055 141.059 296.473V294.426C141.059 293.844 140.909 293.399 140.609 293.089C140.318 292.78 139.913 292.625 139.395 292.625C138.894 292.625 138.494 292.785 138.194 293.103C137.894 293.421 137.744 293.862 137.744 294.426V296.473C137.744 297.037 137.894 297.478 138.194 297.797C138.494 298.115 138.894 298.274 139.395 298.274ZM146.88 299.339C146.089 299.339 145.466 299.138 145.011 298.738C144.556 298.329 144.329 297.779 144.329 297.087C144.329 296.387 144.556 295.836 145.011 295.436C145.466 295.036 146.08 294.836 146.853 294.836H149.173V294.085C149.173 293.621 149.032 293.267 148.75 293.021C148.477 292.766 148.086 292.639 147.576 292.639C147.13 292.639 146.758 292.735 146.457 292.926C146.157 293.107 145.984 293.358 145.939 293.676H144.711C144.793 293.03 145.097 292.516 145.625 292.134C146.153 291.752 146.812 291.561 147.604 291.561C148.468 291.561 149.15 291.784 149.65 292.23C150.151 292.675 150.401 293.28 150.401 294.044V299.202H149.2V297.769H148.995L149.2 297.565C149.2 298.111 148.986 298.543 148.559 298.861C148.14 299.179 147.581 299.339 146.88 299.339ZM147.181 298.37C147.763 298.37 148.24 298.224 148.613 297.933C148.986 297.642 149.173 297.269 149.173 296.814V295.75H146.88C146.471 295.75 146.148 295.864 145.912 296.091C145.675 296.319 145.557 296.628 145.557 297.019C145.557 297.437 145.698 297.769 145.98 298.015C146.271 298.252 146.671 298.37 147.181 298.37ZM155.103 299.202V292.775H152.374V291.697H159.06V292.775H156.331V299.202H155.103ZM163.898 299.311C163.298 299.311 162.78 299.198 162.343 298.97C161.906 298.743 161.565 298.415 161.32 297.988C161.083 297.551 160.965 297.037 160.965 296.446V294.454C160.965 293.853 161.083 293.339 161.32 292.912C161.565 292.484 161.906 292.157 162.343 291.929C162.78 291.702 163.298 291.588 163.898 291.588C164.499 291.588 165.017 291.702 165.454 291.929C165.891 292.157 166.227 292.484 166.464 292.912C166.709 293.339 166.832 293.849 166.832 294.44V296.446C166.832 297.037 166.709 297.551 166.464 297.988C166.227 298.415 165.891 298.743 165.454 298.97C165.017 299.198 164.499 299.311 163.898 299.311ZM163.898 298.22C164.435 298.22 164.854 298.07 165.154 297.769C165.454 297.469 165.604 297.028 165.604 296.446V294.454C165.604 293.872 165.454 293.43 165.154 293.13C164.854 292.83 164.435 292.68 163.898 292.68C163.371 292.68 162.952 292.83 162.643 293.13C162.343 293.43 162.193 293.872 162.193 294.454V296.446C162.193 297.028 162.343 297.469 162.643 297.769C162.952 298.07 163.371 298.22 163.898 298.22ZM169.242 301.658V291.697H170.47V293.13H170.715L170.47 293.417C170.47 292.844 170.656 292.393 171.029 292.066C171.411 291.729 171.912 291.561 172.53 291.561C173.285 291.561 173.886 291.811 174.331 292.312C174.786 292.803 175.014 293.48 175.014 294.345V296.541C175.014 297.114 174.909 297.61 174.7 298.029C174.5 298.447 174.213 298.77 173.84 298.997C173.476 299.225 173.04 299.339 172.53 299.339C171.921 299.339 171.425 299.17 171.043 298.834C170.661 298.497 170.47 298.047 170.47 297.483L170.715 297.769H170.443L170.47 299.475V301.658H169.242ZM172.121 298.274C172.639 298.274 173.044 298.12 173.335 297.81C173.635 297.501 173.786 297.055 173.786 296.473V294.426C173.786 293.844 173.635 293.399 173.335 293.089C173.044 292.78 172.639 292.625 172.121 292.625C171.621 292.625 171.22 292.785 170.92 293.103C170.62 293.421 170.47 293.862 170.47 294.426V296.473C170.47 297.037 170.62 297.478 170.92 297.797C171.22 298.115 171.621 298.274 172.121 298.274ZM177.451 299.202V291.697H178.624V295.791C178.624 296.055 178.615 296.332 178.597 296.623C178.588 296.914 178.57 297.192 178.542 297.456C178.524 297.71 178.501 297.929 178.474 298.111L181.503 291.697H183.072V299.202H181.899V295.109C181.899 294.845 181.903 294.567 181.913 294.276C181.931 293.985 181.953 293.708 181.981 293.444C182.008 293.171 182.031 292.948 182.049 292.775L179.02 299.202H177.451ZM185.168 299.202L187.092 296.309C186.519 296.173 186.073 295.909 185.755 295.518C185.446 295.127 185.291 294.64 185.291 294.058C185.291 293.321 185.532 292.744 186.014 292.325C186.506 291.907 187.174 291.697 188.02 291.697H191.254V299.202H190.026V296.405H188.375L186.601 299.202H185.168ZM188.02 295.313H190.026V292.789H188.02C187.565 292.789 187.206 292.903 186.942 293.13C186.678 293.349 186.546 293.658 186.546 294.058C186.546 294.449 186.678 294.758 186.942 294.986C187.206 295.204 187.565 295.313 188.02 295.313Z" fill="white"/>
<path d="M37.3544 399.934V398.788H37.6C38.0003 398.788 38.2868 398.611 38.4597 398.256C38.6416 397.892 38.7371 397.273 38.7462 396.4L38.8554 389.905H43.9858V399.866H42.7578V391.024H40.0698L39.9742 396.4C39.9561 397.619 39.7605 398.515 39.3875 399.088C39.0237 399.652 38.4506 399.934 37.6683 399.934H37.3544ZM48.7016 400.002C47.9102 400.002 47.2871 399.802 46.8323 399.402C46.3774 398.993 46.15 398.442 46.15 397.751C46.15 397.05 46.3774 396.5 46.8323 396.1C47.2871 395.7 47.9011 395.5 48.6743 395.5H50.9939V394.749C50.9939 394.285 50.8529 393.93 50.5709 393.685C50.298 393.43 49.9069 393.303 49.3975 393.303C48.9518 393.303 48.5788 393.398 48.2786 393.589C47.9784 393.771 47.8056 394.021 47.7601 394.34H46.5321C46.6139 393.694 46.9187 393.18 47.4463 392.798C47.9739 392.416 48.6334 392.225 49.4248 392.225C50.2889 392.225 50.9712 392.448 51.4715 392.893C51.9718 393.339 52.222 393.944 52.222 394.708V399.866H51.0212V398.433H50.8165L51.0212 398.228C51.0212 398.774 50.8074 399.206 50.3799 399.525C49.9615 399.843 49.402 400.002 48.7016 400.002ZM49.0018 399.034C49.584 399.034 50.0615 398.888 50.4345 398.597C50.8074 398.306 50.9939 397.933 50.9939 397.478V396.414H48.7016C48.2923 396.414 47.9693 396.527 47.7328 396.755C47.4963 396.982 47.3781 397.292 47.3781 397.683C47.3781 398.101 47.519 398.433 47.801 398.679C48.0921 398.915 48.4924 399.034 49.0018 399.034ZM55.8734 402.322L56.9787 399.402L54.1951 392.361H55.5596L57.3062 397C57.3698 397.155 57.429 397.342 57.4835 397.56C57.5381 397.769 57.5836 397.946 57.62 398.092C57.6564 397.946 57.7018 397.769 57.7564 397.56C57.811 397.342 57.8656 397.155 57.9202 397L59.5575 392.361H60.8811L57.1833 402.322H55.8734ZM62.9088 399.866V392.361H64.1369V395.486H67.3025V392.361H68.5305V399.866H67.3025V396.605H64.1369V399.866H62.9088ZM70.2171 401.776V398.815H70.8312C70.9858 398.661 71.145 398.356 71.3087 397.901C71.4816 397.446 71.5725 396.869 71.5816 396.168L71.6635 392.361H76.562V398.815H77.5171V401.776H76.4255V399.866H71.3087V401.776H70.2171ZM72.1274 398.815H75.3339V393.453H72.8233L72.7687 396.195C72.7596 396.914 72.6823 397.496 72.5368 397.942C72.3912 398.388 72.2548 398.679 72.1274 398.815ZM78.235 399.866L79.8723 396.018L78.3441 392.361H79.5312L80.8411 395.636H81.5643V392.361H82.6013V395.636H83.2972L84.648 392.361H85.8215L84.2933 395.977L85.9306 399.866H84.7026L83.3381 396.455H82.6013V399.866H81.5643V396.455H80.8275L79.4493 399.866H78.235ZM98.0912 399.961C97.2998 399.961 96.6494 399.793 96.1399 399.457C95.6396 399.12 95.3394 398.665 95.2394 398.092H96.5356C96.5993 398.319 96.7676 398.506 97.0405 398.651C97.3225 398.797 97.6727 398.87 98.0912 398.87H98.7325C99.1782 398.87 99.5239 398.765 99.7695 398.556C100.024 398.347 100.152 398.074 100.152 397.737C100.152 397.373 100.029 397.087 99.7831 396.878C99.5466 396.668 99.1964 396.564 98.7325 396.564H97.0814V395.5H98.6915C99.11 395.5 99.4283 395.399 99.6467 395.199C99.865 394.999 99.9741 394.735 99.9741 394.408C99.9741 394.181 99.9241 393.989 99.824 393.835C99.7331 393.68 99.5921 393.562 99.4011 393.48C99.21 393.398 98.9781 393.357 98.7052 393.357H98.0229C97.6591 393.357 97.3452 393.439 97.0814 393.603C96.8176 393.767 96.6584 393.967 96.6039 394.203H95.3076C95.3986 393.639 95.6942 393.175 96.1945 392.811C96.6948 392.448 97.3043 392.266 98.0229 392.266H98.7052C99.2419 392.266 99.7012 392.352 100.083 392.525C100.465 392.689 100.756 392.925 100.957 393.234C101.166 393.544 101.27 393.912 101.27 394.34C101.27 394.785 101.125 395.154 100.834 395.445C100.543 395.727 100.133 395.886 99.6057 395.922V395.977C100.252 396.023 100.72 396.195 101.011 396.496C101.302 396.796 101.448 397.228 101.448 397.792C101.448 398.456 101.202 398.983 100.711 399.375C100.22 399.766 99.5602 399.961 98.7325 399.961H98.0912ZM106.627 399.975C106.027 399.975 105.509 399.861 105.072 399.634C104.635 399.406 104.294 399.079 104.049 398.651C103.812 398.215 103.694 397.701 103.694 397.11V395.117C103.694 394.517 103.812 394.003 104.049 393.576C104.294 393.148 104.635 392.821 105.072 392.593C105.509 392.366 106.027 392.252 106.627 392.252C107.228 392.252 107.746 392.366 108.183 392.593C108.62 392.821 108.956 393.148 109.193 393.576C109.438 394.003 109.561 394.513 109.561 395.104V397.11C109.561 397.701 109.438 398.215 109.193 398.651C108.956 399.079 108.62 399.406 108.183 399.634C107.746 399.861 107.228 399.975 106.627 399.975ZM106.627 398.883C107.164 398.883 107.583 398.733 107.883 398.433C108.183 398.133 108.333 397.692 108.333 397.11V395.117C108.333 394.535 108.183 394.094 107.883 393.794C107.583 393.494 107.164 393.344 106.627 393.344C106.1 393.344 105.681 393.494 105.372 393.794C105.072 394.094 104.922 394.535 104.922 395.117V397.11C104.922 397.692 105.072 398.133 105.372 398.433C105.681 398.733 106.1 398.883 106.627 398.883ZM111.998 399.866V392.361H113.226V395.486H116.392V392.361H117.62V399.866H116.392V396.605H113.226V399.866H111.998ZM122.336 400.002C121.544 400.002 120.921 399.802 120.466 399.402C120.011 398.993 119.784 398.442 119.784 397.751C119.784 397.05 120.011 396.5 120.466 396.1C120.921 395.7 121.535 395.5 122.308 395.5H124.628V394.749C124.628 394.285 124.487 393.93 124.205 393.685C123.932 393.43 123.541 393.303 123.032 393.303C122.586 393.303 122.213 393.398 121.913 393.589C121.612 393.771 121.44 394.021 121.394 394.34H120.166C120.248 393.694 120.553 393.18 121.08 392.798C121.608 392.416 122.267 392.225 123.059 392.225C123.923 392.225 124.605 392.448 125.106 392.893C125.606 393.339 125.856 393.944 125.856 394.708V399.866H124.655V398.433H124.451L124.655 398.228C124.655 398.774 124.442 399.206 124.014 399.525C123.596 399.843 123.036 400.002 122.336 400.002ZM122.636 399.034C123.218 399.034 123.696 398.888 124.069 398.597C124.442 398.306 124.628 397.933 124.628 397.478V396.414H122.336C121.926 396.414 121.603 396.527 121.367 396.755C121.13 396.982 121.012 397.292 121.012 397.683C121.012 398.101 121.153 398.433 121.435 398.679C121.726 398.915 122.126 399.034 122.636 399.034Z" fill="white"/>
<path d="M40.561 500.846V491.991H37.832V490.872H44.518V491.991H41.789V500.846H40.561ZM49.3566 500.983C48.7653 500.983 48.2468 500.865 47.801 500.628C47.3644 500.392 47.0233 500.06 46.7777 499.632C46.5412 499.195 46.4229 498.691 46.4229 498.117V496.071C46.4229 495.489 46.5412 494.984 46.7777 494.556C47.0233 494.129 47.3644 493.797 47.801 493.56C48.2468 493.324 48.7653 493.205 49.3566 493.205C49.9478 493.205 50.4618 493.324 50.8984 493.56C51.3441 493.797 51.6853 494.129 51.9218 494.556C52.1674 494.984 52.2902 495.489 52.2902 496.071V497.394H47.6237V498.117C47.6237 498.709 47.7738 499.164 48.0739 499.482C48.3741 499.791 48.8017 499.946 49.3566 499.946C49.8296 499.946 50.2116 499.864 50.5027 499.7C50.7938 499.527 50.9712 499.273 51.0349 498.936H52.2629C52.181 499.564 51.8717 500.064 51.335 500.437C50.8074 500.801 50.148 500.983 49.3566 500.983ZM51.0894 496.576V496.071C51.0894 495.479 50.9393 495.025 50.6392 494.706C50.3481 494.388 49.9205 494.229 49.3566 494.229C48.8017 494.229 48.3741 494.388 48.0739 494.706C47.7738 495.025 47.6237 495.479 47.6237 496.071V496.466H51.185L51.0894 496.576ZM57.5654 500.983C56.965 500.983 56.4374 500.869 55.9826 500.642C55.5369 500.414 55.1912 500.087 54.9456 499.659C54.7 499.223 54.5772 498.709 54.5772 498.117V496.071C54.5772 495.47 54.7 494.956 54.9456 494.529C55.1912 494.101 55.5369 493.774 55.9826 493.546C56.4374 493.319 56.965 493.205 57.5654 493.205C58.4296 493.205 59.1255 493.437 59.6531 493.901C60.1807 494.365 60.4581 494.997 60.4854 495.798H59.2574C59.2301 495.316 59.0663 494.947 58.7661 494.693C58.4751 494.429 58.0748 494.297 57.5654 494.297C57.0287 494.297 56.6012 494.452 56.2828 494.761C55.9644 495.061 55.8052 495.493 55.8052 496.057V498.117C55.8052 498.681 55.9644 499.118 56.2828 499.427C56.6012 499.737 57.0287 499.891 57.5654 499.891C58.0748 499.891 58.4751 499.759 58.7661 499.496C59.0663 499.232 59.2301 498.863 59.2574 498.39H60.4854C60.4581 499.191 60.1807 499.823 59.6531 500.287C59.1255 500.751 58.4296 500.983 57.5654 500.983ZM65.1057 500.846V494.42H62.3767V493.342H69.0627V494.42H66.3337V500.846H65.1057ZM71.0904 500.846V493.342H72.2639V497.435C72.2639 497.699 72.2548 497.976 72.2366 498.268C72.2275 498.559 72.2093 498.836 72.182 499.1C72.1638 499.355 72.1411 499.573 72.1138 499.755L75.1429 493.342H76.7121V500.846H75.5386V496.753C75.5386 496.489 75.5432 496.212 75.5523 495.921C75.5705 495.63 75.5932 495.352 75.6205 495.088C75.6478 494.815 75.6705 494.593 75.6887 494.42L72.6596 500.846H71.0904ZM79.2447 503.303V493.342H80.4727V494.774H80.7183L80.4727 495.061C80.4727 494.488 80.6592 494.038 81.0321 493.71C81.4142 493.374 81.9145 493.205 82.5331 493.205C83.2881 493.205 83.8885 493.455 84.3342 493.956C84.789 494.447 85.0164 495.125 85.0164 495.989V498.186C85.0164 498.759 84.9118 499.255 84.7026 499.673C84.5025 500.091 84.2159 500.414 83.843 500.642C83.4791 500.869 83.0425 500.983 82.5331 500.983C81.9236 500.983 81.4278 500.815 81.0458 500.478C80.6637 500.141 80.4727 499.691 80.4727 499.127L80.7183 499.414H80.4454L80.4727 501.119V503.303H79.2447ZM82.1237 499.919C82.6422 499.919 83.047 499.764 83.3381 499.455C83.6383 499.145 83.7884 498.7 83.7884 498.117V496.071C83.7884 495.489 83.6383 495.043 83.3381 494.734C83.047 494.424 82.6422 494.27 82.1237 494.27C81.6234 494.27 81.2232 494.429 80.923 494.747C80.6228 495.066 80.4727 495.507 80.4727 496.071V498.117C80.4727 498.681 80.6228 499.123 80.923 499.441C81.2232 499.759 81.6234 499.919 82.1237 499.919ZM90.2644 500.956C89.664 500.956 89.1455 500.842 88.7089 500.614C88.2722 500.387 87.9311 500.06 87.6855 499.632C87.449 499.195 87.3307 498.681 87.3307 498.09V496.098C87.3307 495.498 87.449 494.984 87.6855 494.556C87.9311 494.129 88.2722 493.801 88.7089 493.574C89.1455 493.346 89.664 493.233 90.2644 493.233C90.8647 493.233 91.3832 493.346 91.8199 493.574C92.2565 493.801 92.5931 494.129 92.8296 494.556C93.0752 494.984 93.198 495.493 93.198 496.084V498.09C93.198 498.681 93.0752 499.195 92.8296 499.632C92.5931 500.06 92.2565 500.387 91.8199 500.614C91.3832 500.842 90.8647 500.956 90.2644 500.956ZM90.2644 499.864C90.8011 499.864 91.2195 499.714 91.5197 499.414C91.8199 499.114 91.97 498.672 91.97 498.09V496.098C91.97 495.516 91.8199 495.075 91.5197 494.774C91.2195 494.474 90.8011 494.324 90.2644 494.324C89.7368 494.324 89.3183 494.474 89.009 494.774C88.7089 495.075 88.5588 495.516 88.5588 496.098V498.09C88.5588 498.672 88.7089 499.114 89.009 499.414C89.3183 499.714 89.7368 499.864 90.2644 499.864ZM95.6351 500.846V493.342H98.8826C99.6649 493.342 100.27 493.519 100.697 493.874C101.125 494.22 101.339 494.706 101.339 495.334C101.339 495.852 101.161 496.271 100.806 496.589C100.452 496.899 99.9832 497.053 99.4011 497.053V496.944C100.038 496.944 100.547 497.103 100.929 497.422C101.32 497.74 101.516 498.168 101.516 498.704C101.516 499.377 101.289 499.905 100.834 500.287C100.379 500.66 99.7422 500.846 98.9235 500.846H95.6351ZM96.8358 499.768H98.9235C99.3601 499.768 99.6967 499.673 99.9332 499.482C100.179 499.291 100.302 499.023 100.302 498.677C100.302 498.322 100.179 498.049 99.9332 497.858C99.6967 497.667 99.3601 497.572 98.9235 497.572H96.8358V499.768ZM96.8358 496.507H98.8826C99.2646 496.507 99.5648 496.416 99.7831 496.234C100.011 496.053 100.124 495.798 100.124 495.47C100.124 495.143 100.015 494.888 99.7968 494.706C99.5784 494.515 99.2737 494.42 98.8826 494.42H96.8358V496.507ZM106.627 500.956C106.027 500.956 105.509 500.842 105.072 500.614C104.635 500.387 104.294 500.06 104.049 499.632C103.812 499.195 103.694 498.681 103.694 498.09V496.098C103.694 495.498 103.812 494.984 104.049 494.556C104.294 494.129 104.635 493.801 105.072 493.574C105.509 493.346 106.027 493.233 106.627 493.233C107.228 493.233 107.746 493.346 108.183 493.574C108.62 493.801 108.956 494.129 109.193 494.556C109.438 494.984 109.561 495.493 109.561 496.084V498.09C109.561 498.681 109.438 499.195 109.193 499.632C108.956 500.06 108.62 500.387 108.183 500.614C107.746 500.842 107.228 500.956 106.627 500.956ZM106.627 499.864C107.164 499.864 107.583 499.714 107.883 499.414C108.183 499.114 108.333 498.672 108.333 498.09V496.098C108.333 495.516 108.183 495.075 107.883 494.774C107.583 494.474 107.164 494.324 106.627 494.324C106.1 494.324 105.681 494.474 105.372 494.774C105.072 495.075 104.922 495.516 104.922 496.098V498.09C104.922 498.672 105.072 499.114 105.372 499.414C105.681 499.714 106.1 499.864 106.627 499.864ZM116.31 500.846V498.117C116.164 498.154 115.942 498.19 115.641 498.227C115.35 498.254 115.041 498.268 114.714 498.268C113.786 498.277 113.063 498.054 112.544 497.599C112.035 497.135 111.78 496.489 111.78 495.661V493.342H113.008V495.661C113.008 496.125 113.163 496.494 113.472 496.767C113.79 497.03 114.227 497.162 114.782 497.162C115.164 497.162 115.487 497.149 115.751 497.121C116.023 497.085 116.21 497.053 116.31 497.026V493.342H117.538V500.846H116.31ZM120.18 500.846V493.342H121.408V496.466H124.573V493.342H125.801V500.846H124.573V497.585H121.408V500.846H120.18ZM130.517 500.983C129.726 500.983 129.103 500.783 128.648 500.383C128.193 499.973 127.966 499.423 127.966 498.731C127.966 498.031 128.193 497.481 128.648 497.08C129.103 496.68 129.717 496.48 130.49 496.48H132.81V495.73C132.81 495.266 132.669 494.911 132.387 494.665C132.114 494.411 131.723 494.283 131.213 494.283C130.767 494.283 130.394 494.379 130.094 494.57C129.794 494.752 129.621 495.002 129.576 495.32H128.348C128.43 494.674 128.734 494.16 129.262 493.778C129.789 493.396 130.449 493.205 131.24 493.205C132.105 493.205 132.787 493.428 133.287 493.874C133.787 494.32 134.038 494.925 134.038 495.689V500.846H132.837V499.414H132.632L132.837 499.209C132.837 499.755 132.623 500.187 132.196 500.505C131.777 500.824 131.218 500.983 130.517 500.983ZM130.817 500.014C131.4 500.014 131.877 499.869 132.25 499.577C132.623 499.286 132.81 498.913 132.81 498.459V497.394H130.517C130.108 497.394 129.785 497.508 129.548 497.735C129.312 497.963 129.194 498.272 129.194 498.663C129.194 499.082 129.335 499.414 129.617 499.659C129.908 499.896 130.308 500.014 130.817 500.014ZM136.079 500.846L138.003 497.954C137.43 497.817 136.984 497.553 136.666 497.162C136.356 496.771 136.202 496.285 136.202 495.702C136.202 494.966 136.443 494.388 136.925 493.969C137.416 493.551 138.085 493.342 138.931 493.342H142.165V500.846H140.937V498.049H139.286L137.512 500.846H136.079ZM138.931 496.958H140.937V494.433H138.931C138.476 494.433 138.117 494.547 137.853 494.774C137.589 494.993 137.457 495.302 137.457 495.702C137.457 496.093 137.589 496.403 137.853 496.63C138.117 496.849 138.476 496.958 138.931 496.958ZM151.965 500.942V499.796H152.21C152.629 499.796 152.92 499.632 153.083 499.305C153.256 498.977 153.347 498.39 153.356 497.544L153.438 493.342H158.528V500.846H157.3V494.461H154.653L154.584 497.599C154.566 498.39 154.475 499.032 154.311 499.523C154.157 500.014 153.911 500.373 153.575 500.601C153.247 500.828 152.815 500.942 152.278 500.942H151.965ZM163.243 500.983C162.452 500.983 161.829 500.783 161.374 500.383C160.919 499.973 160.692 499.423 160.692 498.731C160.692 498.031 160.919 497.481 161.374 497.08C161.829 496.68 162.443 496.48 163.216 496.48H165.536V495.73C165.536 495.266 165.395 494.911 165.113 494.665C164.84 494.411 164.449 494.283 163.939 494.283C163.494 494.283 163.121 494.379 162.82 494.57C162.52 494.752 162.347 495.002 162.302 495.32H161.074C161.156 494.674 161.461 494.16 161.988 493.778C162.516 493.396 163.175 493.205 163.967 493.205C164.831 493.205 165.513 493.428 166.013 493.874C166.514 494.32 166.764 494.925 166.764 495.689V500.846H165.563V499.414H165.358L165.563 499.209C165.563 499.755 165.349 500.187 164.922 500.505C164.503 500.824 163.944 500.983 163.243 500.983ZM163.544 500.014C164.126 500.014 164.603 499.869 164.976 499.577C165.349 499.286 165.536 498.913 165.536 498.459V497.394H163.243C162.834 497.394 162.511 497.508 162.275 497.735C162.038 497.963 161.92 498.272 161.92 498.663C161.92 499.082 162.061 499.414 162.343 499.659C162.634 499.896 163.034 500.014 163.544 500.014ZM172.08 500.983C171.198 500.983 170.497 500.724 169.979 500.205C169.469 499.678 169.215 498.959 169.215 498.049V494.638C169.215 493.437 169.515 492.514 170.115 491.868C170.715 491.213 171.575 490.886 172.694 490.886H174.604V492.114H172.694C171.957 492.114 171.398 492.332 171.016 492.769C170.634 493.196 170.443 493.819 170.443 494.638V495.525H170.634L170.443 495.798C170.452 495.261 170.634 494.843 170.988 494.543C171.343 494.242 171.825 494.092 172.435 494.092C173.226 494.092 173.84 494.347 174.277 494.856C174.723 495.366 174.945 496.066 174.945 496.958V498.049C174.945 498.659 174.832 499.182 174.604 499.618C174.377 500.055 174.049 500.392 173.622 500.628C173.194 500.865 172.68 500.983 172.08 500.983ZM172.08 499.891C172.608 499.891 173.012 499.732 173.294 499.414C173.576 499.095 173.717 498.641 173.717 498.049V496.958C173.717 496.366 173.576 495.912 173.294 495.593C173.012 495.275 172.608 495.116 172.08 495.116C171.552 495.116 171.148 495.275 170.866 495.593C170.584 495.902 170.443 496.357 170.443 496.958V498.049C170.443 498.641 170.584 499.095 170.866 499.414C171.148 499.732 171.552 499.891 172.08 499.891ZM180.262 500.956C179.661 500.956 179.143 500.842 178.706 500.614C178.269 500.387 177.928 500.06 177.683 499.632C177.446 499.195 177.328 498.681 177.328 498.09V496.098C177.328 495.498 177.446 494.984 177.683 494.556C177.928 494.129 178.269 493.801 178.706 493.574C179.143 493.346 179.661 493.233 180.262 493.233C180.862 493.233 181.38 493.346 181.817 493.574C182.254 493.801 182.59 494.129 182.827 494.556C183.072 494.984 183.195 495.493 183.195 496.084V498.09C183.195 498.681 183.072 499.195 182.827 499.632C182.59 500.06 182.254 500.387 181.817 500.614C181.38 500.842 180.862 500.956 180.262 500.956ZM180.262 499.864C180.798 499.864 181.217 499.714 181.517 499.414C181.817 499.114 181.967 498.672 181.967 498.09V496.098C181.967 495.516 181.817 495.075 181.517 494.774C181.217 494.474 180.798 494.324 180.262 494.324C179.734 494.324 179.315 494.474 179.006 494.774C178.706 495.075 178.556 495.516 178.556 496.098V498.09C178.556 498.672 178.706 499.114 179.006 499.414C179.315 499.714 179.734 499.864 180.262 499.864ZM185.605 503.303V493.342H186.833V494.774H187.079L186.833 495.061C186.833 494.488 187.019 494.038 187.392 493.71C187.775 493.374 188.275 493.205 188.893 493.205C189.648 493.205 190.249 493.455 190.694 493.956C191.149 494.447 191.377 495.125 191.377 495.989V498.186C191.377 498.759 191.272 499.255 191.063 499.673C190.863 500.091 190.576 500.414 190.203 500.642C189.839 500.869 189.403 500.983 188.893 500.983C188.284 500.983 187.788 500.815 187.406 500.478C187.024 500.141 186.833 499.691 186.833 499.127L187.079 499.414H186.806L186.833 501.119V503.303H185.605ZM188.484 499.919C189.003 499.919 189.407 499.764 189.698 499.455C189.999 499.145 190.149 498.7 190.149 498.117V496.071C190.149 495.489 189.999 495.043 189.698 494.734C189.407 494.424 189.003 494.27 188.484 494.27C187.984 494.27 187.583 494.429 187.283 494.747C186.983 495.066 186.833 495.507 186.833 496.071V498.117C186.833 498.681 186.983 499.123 187.283 499.441C187.583 499.759 187.984 499.919 188.484 499.919ZM195.97 500.983C195.178 500.983 194.555 500.783 194.1 500.383C193.646 499.973 193.418 499.423 193.418 498.731C193.418 498.031 193.646 497.481 194.1 497.08C194.555 496.68 195.169 496.48 195.942 496.48H198.262V495.73C198.262 495.266 198.121 494.911 197.839 494.665C197.566 494.411 197.175 494.283 196.666 494.283C196.22 494.283 195.847 494.379 195.547 494.57C195.247 494.752 195.074 495.002 195.028 495.32H193.8C193.882 494.674 194.187 494.16 194.714 493.778C195.242 493.396 195.901 493.205 196.693 493.205C197.557 493.205 198.239 493.428 198.74 493.874C199.24 494.32 199.49 494.925 199.49 495.689V500.846H198.289V499.414H198.085L198.289 499.209C198.289 499.755 198.076 500.187 197.648 500.505C197.23 500.824 196.67 500.983 195.97 500.983ZM196.27 500.014C196.852 500.014 197.33 499.869 197.703 499.577C198.076 499.286 198.262 498.913 198.262 498.459V497.394H195.97C195.56 497.394 195.237 497.508 195.001 497.735C194.764 497.963 194.646 498.272 194.646 498.663C194.646 499.082 194.787 499.414 195.069 499.659C195.36 499.896 195.76 500.014 196.27 500.014ZM204.192 500.846V494.42H201.463V493.342H208.149V494.42H205.42V500.846H204.192ZM212.988 500.956C212.387 500.956 211.869 500.842 211.432 500.614C210.996 500.387 210.655 500.06 210.409 499.632C210.172 499.195 210.054 498.681 210.054 498.09V496.098C210.054 495.498 210.172 494.984 210.409 494.556C210.655 494.129 210.996 493.801 211.432 493.574C211.869 493.346 212.387 493.233 212.988 493.233C213.588 493.233 214.107 493.346 214.543 493.574C214.98 493.801 215.316 494.129 215.553 494.556C215.799 494.984 215.921 495.493 215.921 496.084V498.09C215.921 498.681 215.799 499.195 215.553 499.632C215.316 500.06 214.98 500.387 214.543 500.614C214.107 500.842 213.588 500.956 212.988 500.956ZM212.988 499.864C213.524 499.864 213.943 499.714 214.243 499.414C214.543 499.114 214.693 498.672 214.693 498.09V496.098C214.693 495.516 214.543 495.075 214.243 494.774C213.943 494.474 213.524 494.324 212.988 494.324C212.46 494.324 212.042 494.474 211.732 494.774C211.432 495.075 211.282 495.516 211.282 496.098V498.09C211.282 498.672 211.432 499.114 211.732 499.414C212.042 499.714 212.46 499.864 212.988 499.864ZM218.331 503.303V493.342H219.559V494.774H219.805L219.559 495.061C219.559 494.488 219.746 494.038 220.119 493.71C220.501 493.374 221.001 493.205 221.62 493.205C222.375 493.205 222.975 493.455 223.421 493.956C223.876 494.447 224.103 495.125 224.103 495.989V498.186C224.103 498.759 223.998 499.255 223.789 499.673C223.589 500.091 223.302 500.414 222.93 500.642C222.566 500.869 222.129 500.983 221.62 500.983C221.01 500.983 220.514 500.815 220.132 500.478C219.75 500.141 219.559 499.691 219.559 499.127L219.805 499.414H219.532L219.559 501.119V503.303H218.331ZM221.21 499.919C221.729 499.919 222.134 499.764 222.425 499.455C222.725 499.145 222.875 498.7 222.875 498.117V496.071C222.875 495.489 222.725 495.043 222.425 494.734C222.134 494.424 221.729 494.27 221.21 494.27C220.71 494.27 220.31 494.429 220.01 494.747C219.709 495.066 219.559 495.507 219.559 496.071V498.117C219.559 498.681 219.709 499.123 220.01 499.441C220.31 499.759 220.71 499.919 221.21 499.919ZM226.54 500.846V493.342H227.714V497.435C227.714 497.699 227.704 497.976 227.686 498.268C227.677 498.559 227.659 498.836 227.632 499.1C227.613 499.355 227.591 499.573 227.563 499.755L230.593 493.342H232.162V500.846H230.988V496.753C230.988 496.489 230.993 496.212 231.002 495.921C231.02 495.63 231.043 495.352 231.07 495.088C231.097 494.815 231.12 494.593 231.138 494.42L228.109 500.846H226.54ZM234.258 500.846L236.182 497.954C235.609 497.817 235.163 497.553 234.844 497.162C234.535 496.771 234.381 496.285 234.381 495.702C234.381 494.966 234.622 494.388 235.104 493.969C235.595 493.551 236.264 493.342 237.109 493.342H240.343V500.846H239.115V498.049H237.464L235.69 500.846H234.258ZM237.109 496.958H239.115V494.433H237.109C236.655 494.433 236.295 494.547 236.032 494.774C235.768 494.993 235.636 495.302 235.636 495.702C235.636 496.093 235.768 496.403 236.032 496.63C236.295 496.849 236.655 496.958 237.109 496.958Z" fill="white"/>
<path d="M775.806 407.47C776.866 408.143 778.271 407.828 778.944 406.767C779.616 405.707 779.302 404.302 778.241 403.629C777.18 402.957 775.775 403.271 775.103 404.332C774.43 405.393 774.745 406.798 775.806 407.47ZM740.413 358.332C741.473 359.004 742.878 358.69 743.551 357.629C744.223 356.568 743.909 355.163 742.848 354.49C741.787 353.818 740.382 354.133 739.71 355.193C739.037 356.254 739.352 357.659 740.413 358.332ZM777.023 405.55L777.369 405.301L741.976 356.162L741.63 356.411L741.284 356.66L776.677 405.799L777.023 405.55Z" fill="white"/>
<path d="M721.032 427.975V418.015H726.653V427.975H725.425V419.133H722.26V427.975H721.032ZM732.024 428.112C731.433 428.112 730.914 427.993 730.469 427.757C730.032 427.52 729.691 427.188 729.445 426.761C729.209 426.324 729.09 425.819 729.09 425.246V423.2C729.09 422.617 729.209 422.112 729.445 421.685C729.691 421.257 730.032 420.925 730.469 420.689C730.914 420.452 731.433 420.334 732.024 420.334C732.615 420.334 733.129 420.452 733.566 420.689C734.012 420.925 734.353 421.257 734.589 421.685C734.835 422.112 734.958 422.617 734.958 423.2V424.523H730.291V425.246C730.291 425.838 730.441 426.292 730.741 426.611C731.042 426.92 731.469 427.075 732.024 427.075C732.497 427.075 732.879 426.993 733.17 426.829C733.461 426.656 733.639 426.402 733.702 426.065H734.93C734.849 426.693 734.539 427.193 734.003 427.566C733.475 427.93 732.815 428.112 732.024 428.112ZM733.757 423.704V423.2C733.757 422.608 733.607 422.153 733.307 421.835C733.016 421.517 732.588 421.357 732.024 421.357C731.469 421.357 731.042 421.517 730.741 421.835C730.441 422.153 730.291 422.608 730.291 423.2V423.595H733.852L733.757 423.704ZM737.367 430.431V420.471H738.596V421.903H738.841L738.596 422.19C738.596 421.617 738.782 421.166 739.155 420.839C739.537 420.502 740.037 420.334 740.656 420.334C741.411 420.334 742.011 420.584 742.457 421.085C742.912 421.576 743.139 422.253 743.139 423.118V425.314C743.139 425.888 743.035 426.383 742.825 426.802C742.625 427.22 742.339 427.543 741.966 427.771C741.602 427.998 741.165 428.112 740.656 428.112C740.046 428.112 739.551 427.943 739.169 427.607C738.787 427.27 738.596 426.82 738.596 426.256L738.841 426.543H738.568L738.596 428.248V430.431H737.367ZM740.247 427.047C740.765 427.047 741.17 426.893 741.461 426.583C741.761 426.274 741.911 425.828 741.911 425.246V423.2C741.911 422.617 741.761 422.172 741.461 421.862C741.17 421.553 740.765 421.398 740.247 421.398C739.746 421.398 739.346 421.558 739.046 421.876C738.746 422.194 738.596 422.636 738.596 423.2V425.246C738.596 425.81 738.746 426.251 739.046 426.57C739.346 426.888 739.746 427.047 740.247 427.047ZM748.387 428.112C747.796 428.112 747.277 427.993 746.832 427.757C746.395 427.52 746.054 427.188 745.808 426.761C745.572 426.324 745.454 425.819 745.454 425.246V423.2C745.454 422.617 745.572 422.112 745.808 421.685C746.054 421.257 746.395 420.925 746.832 420.689C747.277 420.452 747.796 420.334 748.387 420.334C748.978 420.334 749.492 420.452 749.929 420.689C750.375 420.925 750.716 421.257 750.952 421.685C751.198 422.112 751.321 422.617 751.321 423.2V424.523H746.654V425.246C746.654 425.838 746.804 426.292 747.105 426.611C747.405 426.92 747.832 427.075 748.387 427.075C748.86 427.075 749.242 426.993 749.533 426.829C749.824 426.656 750.002 426.402 750.065 426.065H751.294C751.212 426.693 750.902 427.193 750.366 427.566C749.838 427.93 749.179 428.112 748.387 428.112ZM750.12 423.704V423.2C750.12 422.608 749.97 422.153 749.67 421.835C749.379 421.517 748.951 421.357 748.387 421.357C747.832 421.357 747.405 421.517 747.105 421.835C746.804 422.153 746.654 422.608 746.654 423.2V423.595H750.216L750.12 423.704ZM754.249 427.975V420.471H759.639V421.589H755.477V427.975H754.249ZM764.75 428.084C764.15 428.084 763.631 427.971 763.195 427.743C762.758 427.516 762.417 427.188 762.171 426.761C761.935 426.324 761.817 425.81 761.817 425.219V423.227C761.817 422.626 761.935 422.112 762.171 421.685C762.417 421.257 762.758 420.93 763.195 420.703C763.631 420.475 764.15 420.361 764.75 420.361C765.351 420.361 765.869 420.475 766.306 420.703C766.742 420.93 767.079 421.257 767.316 421.685C767.561 422.112 767.684 422.622 767.684 423.213V425.219C767.684 425.81 767.561 426.324 767.316 426.761C767.079 427.188 766.742 427.516 766.306 427.743C765.869 427.971 765.351 428.084 764.75 428.084ZM764.75 426.993C765.287 426.993 765.705 426.843 766.006 426.543C766.306 426.242 766.456 425.801 766.456 425.219V423.227C766.456 422.645 766.306 422.203 766.006 421.903C765.705 421.603 765.287 421.453 764.75 421.453C764.223 421.453 763.804 421.603 763.495 421.903C763.195 422.203 763.045 422.645 763.045 423.227V425.219C763.045 425.801 763.195 426.242 763.495 426.543C763.804 426.843 764.223 426.993 764.75 426.993ZM770.121 427.975V420.471H773.368C774.151 420.471 774.756 420.648 775.183 421.003C775.611 421.348 775.825 421.835 775.825 422.463C775.825 422.981 775.647 423.4 775.292 423.718C774.938 424.027 774.469 424.182 773.887 424.182V424.073C774.524 424.073 775.033 424.232 775.415 424.55C775.806 424.869 776.002 425.296 776.002 425.833C776.002 426.506 775.775 427.034 775.32 427.416C774.865 427.789 774.228 427.975 773.409 427.975H770.121ZM771.322 426.897H773.409C773.846 426.897 774.183 426.802 774.419 426.611C774.665 426.42 774.788 426.151 774.788 425.806C774.788 425.451 774.665 425.178 774.419 424.987C774.183 424.796 773.846 424.7 773.409 424.7H771.322V426.897ZM771.322 423.636H773.368C773.751 423.636 774.051 423.545 774.269 423.363C774.496 423.181 774.61 422.927 774.61 422.599C774.61 422.272 774.501 422.017 774.283 421.835C774.064 421.644 773.76 421.549 773.368 421.549H771.322V423.636ZM781.113 428.084C780.513 428.084 779.995 427.971 779.558 427.743C779.121 427.516 778.78 427.188 778.535 426.761C778.298 426.324 778.18 425.81 778.18 425.219V423.227C778.18 422.626 778.298 422.112 778.535 421.685C778.78 421.257 779.121 420.93 779.558 420.703C779.995 420.475 780.513 420.361 781.113 420.361C781.714 420.361 782.232 420.475 782.669 420.703C783.106 420.93 783.442 421.257 783.679 421.685C783.924 422.112 784.047 422.622 784.047 423.213V425.219C784.047 425.81 783.924 426.324 783.679 426.761C783.442 427.188 783.106 427.516 782.669 427.743C782.232 427.971 781.714 428.084 781.113 428.084ZM781.113 426.993C781.65 426.993 782.069 426.843 782.369 426.543C782.669 426.242 782.819 425.801 782.819 425.219V423.227C782.819 422.645 782.669 422.203 782.369 421.903C782.069 421.603 781.65 421.453 781.113 421.453C780.586 421.453 780.167 421.603 779.858 421.903C779.558 422.203 779.408 422.645 779.408 423.227V425.219C779.408 425.801 779.558 426.242 779.858 426.543C780.167 426.843 780.586 426.993 781.113 426.993ZM786.457 430.431V420.471H787.685V421.903H787.93L787.685 422.19C787.685 421.617 787.871 421.166 788.244 420.839C788.626 420.502 789.127 420.334 789.745 420.334C790.5 420.334 791.101 420.584 791.546 421.085C792.001 421.576 792.229 422.253 792.229 423.118V425.314C792.229 425.888 792.124 426.383 791.915 426.802C791.715 427.22 791.428 427.543 791.055 427.771C790.691 427.998 790.255 428.112 789.745 428.112C789.136 428.112 788.64 427.943 788.258 427.607C787.876 427.27 787.685 426.82 787.685 426.256L787.93 426.543H787.658L787.685 428.248V430.431H786.457ZM789.336 427.047C789.854 427.047 790.259 426.893 790.55 426.583C790.85 426.274 791.001 425.828 791.001 425.246V423.2C791.001 422.617 790.85 422.172 790.55 421.862C790.259 421.553 789.854 421.398 789.336 421.398C788.836 421.398 788.435 421.558 788.135 421.876C787.835 422.194 787.685 422.636 787.685 423.2V425.246C787.685 425.81 787.835 426.251 788.135 426.57C788.435 426.888 788.836 427.047 789.336 427.047ZM794.666 427.975V420.471H795.894V423.595H799.059V420.471H800.287V427.975H799.059V424.714H795.894V427.975H794.666ZM805.003 428.112C804.212 428.112 803.589 427.912 803.134 427.511C802.679 427.102 802.452 426.552 802.452 425.86C802.452 425.16 802.679 424.609 803.134 424.209C803.589 423.809 804.203 423.609 804.976 423.609H807.295V422.858C807.295 422.394 807.154 422.04 806.872 421.794C806.6 421.539 806.208 421.412 805.699 421.412C805.253 421.412 804.88 421.508 804.58 421.699C804.28 421.881 804.107 422.131 804.062 422.449H802.834C802.915 421.803 803.22 421.289 803.748 420.907C804.275 420.525 804.935 420.334 805.726 420.334C806.59 420.334 807.273 420.557 807.773 421.003C808.273 421.448 808.523 422.053 808.523 422.817V427.975H807.323V426.543H807.118L807.323 426.338C807.323 426.884 807.109 427.316 806.681 427.634C806.263 427.952 805.704 428.112 805.003 428.112ZM805.303 427.143C805.885 427.143 806.363 426.997 806.736 426.706C807.109 426.415 807.295 426.042 807.295 425.587V424.523H805.003C804.594 424.523 804.271 424.637 804.034 424.864C803.798 425.092 803.68 425.401 803.68 425.792C803.68 426.21 803.821 426.543 804.103 426.788C804.394 427.025 804.794 427.143 805.303 427.143ZM810.565 427.975L812.489 425.083C811.916 424.946 811.47 424.682 811.152 424.291C810.842 423.9 810.688 423.413 810.688 422.831C810.688 422.094 810.929 421.517 811.411 421.098C811.902 420.68 812.571 420.471 813.417 420.471H816.65V427.975H815.422V425.178H813.771L811.998 427.975H810.565ZM813.417 424.086H815.422V421.562H813.417C812.962 421.562 812.603 421.676 812.339 421.903C812.075 422.122 811.943 422.431 811.943 422.831C811.943 423.222 812.075 423.532 812.339 423.759C812.603 423.977 812.962 424.086 813.417 424.086Z" fill="white"/>
<path d="M422.122 0.366577L422.122 592.211" stroke="black" stroke-width="1.00056"/>
<path d="M19.6707 568.856C19.7708 568.875 19.8799 568.893 19.9982 568.911C20.1255 568.92 20.2665 568.938 20.4212 568.966C20.6213 568.993 20.7759 569.016 20.8851 569.034C20.9942 569.052 21.0579 569.061 21.0761 569.061C21.0852 569.07 21.0943 569.079 21.1034 569.088C21.1125 569.098 21.1261 569.111 21.1443 569.129C21.1625 569.157 21.1898 569.184 21.2262 569.211C21.2717 569.238 21.3172 569.27 21.3627 569.307C21.4172 569.352 21.4627 569.375 21.4991 569.375C21.5355 569.366 21.5673 569.352 21.5946 569.334C21.6219 569.316 21.6401 569.293 21.6492 569.266C21.6674 569.238 21.681 569.225 21.6901 569.225C21.8448 569.334 21.9767 569.43 22.0858 569.511C22.195 569.584 22.2814 569.621 22.3451 569.621C22.3451 569.648 22.3451 569.68 22.3451 569.716C22.3451 569.743 22.3496 569.775 22.3587 569.812C22.3678 569.875 22.3769 569.953 22.386 570.044C22.3951 570.135 22.4088 570.244 22.427 570.371C22.4542 570.608 22.4906 570.849 22.5361 571.094C22.5907 571.331 22.6589 571.567 22.7408 571.804C22.668 571.895 22.6089 571.995 22.5634 572.104C22.5179 572.204 22.477 572.304 22.4406 572.404L22.3314 572.732H22.1813L21.2808 573.523L21.1034 573.482C21.0943 573.482 21.0716 573.5 21.0352 573.537C20.9988 573.564 20.9761 573.578 20.967 573.578C20.9033 573.623 20.8214 573.673 20.7213 573.728C20.6304 573.773 20.5349 573.819 20.4348 573.864C20.3347 573.9 20.2438 573.932 20.1619 573.96C20.08 573.987 20.0209 574.001 19.9845 574.001C19.9572 574.001 19.8936 574.01 19.7935 574.028C19.6934 574.037 19.5752 574.051 19.4387 574.069C19.3023 574.087 19.1476 574.105 18.9748 574.123C18.8111 574.132 18.6473 574.137 18.4836 574.137C17.8286 574.137 17.4921 574.114 17.4739 574.069L17.3511 573.523L17.5558 573.305H17.9787C17.9969 573.305 18.0197 573.286 18.047 573.25C18.0834 573.205 18.1379 573.177 18.2107 573.168C18.4108 573.368 18.6792 573.332 19.0157 573.059C19.1067 572.995 19.2022 572.941 19.3023 572.895C19.4114 572.841 19.5115 572.795 19.6025 572.759C19.7025 572.722 19.7844 572.695 19.8481 572.677C19.9118 572.65 19.9481 572.632 19.9572 572.622C19.9754 572.604 19.9982 572.586 20.0255 572.568C20.0618 572.55 20.0891 572.531 20.1073 572.513C20.1528 572.422 20.1937 572.363 20.2301 572.336C20.2665 572.309 20.2847 572.263 20.2847 572.199L20.5849 571.585C20.5394 571.413 20.4848 571.112 20.4212 570.685C20.3575 570.266 20.3075 570.057 20.2711 570.057L19.1522 569.716L18.9202 569.798C18.8202 569.825 18.7656 569.839 18.7565 569.839H18.5518C18.4881 569.839 18.4336 569.834 18.3881 569.825C18.2607 569.816 18.1516 569.812 18.0606 569.812C17.9787 569.802 17.9105 569.798 17.8559 569.798L17.5148 569.839L17.3374 569.539C17.3556 569.411 17.3784 569.298 17.4057 569.198C17.4329 569.088 17.4511 569.002 17.4602 568.938C17.4602 568.92 17.4511 568.888 17.4329 568.843C17.4148 568.788 17.4057 568.747 17.4057 568.72C17.4057 568.693 17.4148 568.67 17.4329 568.652C17.4511 568.634 17.4648 568.615 17.4739 568.597C17.483 568.534 17.4921 568.461 17.5012 568.379C17.5103 568.297 17.5194 568.22 17.5285 568.147C17.5376 568.074 17.5421 568.015 17.5421 567.97C17.5512 567.915 17.5558 567.879 17.5558 567.86C17.5558 567.842 17.5648 567.833 17.583 567.833H17.4193C17.483 567.697 17.5148 567.606 17.5148 567.56C17.5239 567.515 17.5285 567.456 17.5285 567.383C17.6103 567.374 17.674 567.36 17.7195 567.342C17.7741 567.324 17.815 567.305 17.8423 567.287C17.8787 567.26 17.8969 567.237 17.8969 567.219C17.8787 567.155 17.865 567.101 17.8559 567.055C17.8014 566.964 17.7377 566.896 17.6649 566.851C17.7013 566.76 17.7286 566.687 17.7468 566.632C17.7741 566.578 17.7877 566.528 17.7877 566.482C17.7968 566.428 17.7923 566.373 17.7741 566.319C17.765 566.255 17.7468 566.168 17.7195 566.059C17.7013 565.959 17.7422 565.891 17.8423 565.855C17.9424 565.809 18.0288 565.786 18.1015 565.786H18.6064C18.8065 565.786 19.0021 565.786 19.1931 565.786C19.3933 565.777 19.5615 565.773 19.698 565.773H19.9299L20.08 565.786C20.1164 565.786 20.1665 565.777 20.2301 565.759C20.3029 565.741 20.3711 565.732 20.4348 565.732C20.4439 565.732 20.4757 565.741 20.5303 565.759C20.5849 565.777 20.6349 565.791 20.6804 565.8C20.735 565.809 20.7759 565.809 20.8032 565.8C20.8305 565.782 20.826 565.741 20.7896 565.677C20.8896 565.65 20.9442 565.636 20.9533 565.636C20.9715 565.627 20.9897 565.636 21.0079 565.664C21.0352 565.7 21.1307 565.718 21.2944 565.718C21.3399 565.718 21.3581 565.718 21.349 565.718C21.3399 565.709 21.3718 565.704 21.4445 565.704L21.5537 565.868L21.5946 566.196L21.3354 566.496L20.9397 566.51L20.8169 566.55C20.735 566.578 20.6258 566.605 20.4894 566.632C20.1983 566.714 20.0073 566.741 19.9163 566.714L19.889 566.755C19.8708 566.782 19.8435 566.814 19.8071 566.851C19.7799 566.887 19.7571 566.91 19.7389 566.919C19.648 567.155 19.5888 567.351 19.5615 567.506C19.5433 567.66 19.5342 567.797 19.5342 567.915C19.5342 568.033 19.5388 568.142 19.5479 568.242C19.557 568.342 19.5479 568.452 19.5206 568.57L19.6707 568.856Z" fill="white"/>
<path d="M816.344 570.48C816.326 570.535 816.308 570.603 816.289 570.685C816.28 570.758 816.276 570.839 816.276 570.93C816.276 571.021 816.289 571.117 816.317 571.217C816.344 571.308 816.39 571.394 816.453 571.476C816.435 571.494 816.417 571.517 816.399 571.544C816.38 571.572 816.362 571.604 816.344 571.64C816.299 571.695 816.249 571.767 816.194 571.858C816.139 571.94 816.076 572.04 816.003 572.158C815.712 572.613 815.557 572.841 815.539 572.841L815.048 573.086L814.816 573.127C814.679 573.155 814.584 573.168 814.529 573.168L814.502 573.195C814.502 573.205 814.497 573.214 814.488 573.223C814.279 573.332 813.82 573.468 813.11 573.632L811.623 573.864L810.231 572.773C810.213 572.727 810.195 572.682 810.177 572.636C810.158 572.591 810.14 572.541 810.122 572.486C810.086 572.386 810.049 572.268 810.013 572.131C809.986 571.995 809.958 571.826 809.931 571.626C809.876 571.244 809.835 570.949 809.808 570.739C809.79 570.521 809.781 570.394 809.781 570.357L809.945 569.075L810.054 568.584L810.258 566.905L811.186 565.882L812.66 564.913L813.874 564.681H814.134L814.748 565.159L813.533 565.677L812.878 566.1L811.869 567.383L812.101 568.161L812.114 568.897C812.205 568.97 812.323 569.025 812.469 569.061C812.624 569.098 812.81 569.034 813.028 568.87C813.119 568.806 813.183 568.747 813.219 568.693C813.256 568.638 813.279 568.588 813.288 568.543C813.306 568.497 813.319 568.461 813.329 568.433C813.338 568.406 813.365 568.388 813.41 568.379L814.065 568.42L815.239 568.761C815.266 568.861 815.303 568.938 815.348 568.993C815.403 569.047 815.457 569.098 815.512 569.143C815.575 569.188 815.639 569.238 815.703 569.293C815.776 569.339 815.844 569.407 815.907 569.498C815.971 569.58 816.021 569.671 816.058 569.771C816.103 569.871 816.139 569.971 816.167 570.071C816.203 570.162 816.23 570.244 816.249 570.316C816.276 570.389 816.308 570.444 816.344 570.48ZM813.015 572.622C813.042 572.622 813.092 572.613 813.165 572.595C813.21 572.577 813.269 572.559 813.342 572.541C813.415 572.522 813.501 572.5 813.601 572.472C813.993 572.372 814.261 572.154 814.406 571.817C814.47 571.663 814.502 571.544 814.502 571.463C814.502 571.372 814.47 571.249 814.406 571.094C814.261 570.794 814.17 570.521 814.134 570.276L813.874 570.03C813.82 570.012 813.779 569.994 813.752 569.975C813.706 569.957 813.651 569.939 813.588 569.921C813.533 569.893 813.46 569.857 813.369 569.812C813.051 569.684 812.856 569.63 812.783 569.648C812.746 569.657 812.687 569.689 812.605 569.743C812.533 569.798 812.478 569.843 812.442 569.88C812.378 569.943 812.319 569.998 812.264 570.044C812.219 570.089 812.178 570.135 812.141 570.18L811.978 570.385C811.96 570.421 811.941 570.453 811.923 570.48C811.905 570.507 811.891 570.53 811.882 570.548L811.664 570.617C811.682 570.662 811.705 570.717 811.732 570.78C811.759 570.835 811.782 570.89 811.8 570.944L811.882 571.135L811.8 571.79L812.278 572.718C812.332 572.773 812.419 572.809 812.537 572.827C812.564 572.836 812.614 572.841 812.687 572.841L813.015 572.622Z" fill="white"/>
</g>
<defs>
<clipPath id="clip0_54_114">
<rect width="834.151" height="591.796" fill="white" transform="translate(0.837402 0.366577)"/>
</clipPath>
</defs>
</svg>
